<svg width="315" height="148" viewBox="0 0 315 148" fill="none" xmlns="http://www.w3.org/2000/svg">
<path d="M160.083 88.5833C160.083 90.0417 160.354 91.4375 160.813 92.75H143.417C142.312 92.75 141.252 92.311 140.47 91.5296C139.689 90.7482 139.25 89.6884 139.25 88.5833V59.4167C139.25 57.125 141.125 55.25 143.417 55.25H172.583C173.688 55.25 174.748 55.689 175.53 56.4704C176.311 57.2518 176.75 58.3116 176.75 59.4167V76.8125C175.438 76.3542 174.042 76.0833 172.583 76.0833V59.4167H143.417V88.5833H160.083ZM162.083 74.6042L156.354 81.9792L152.271 77.0625L146.542 84.4167H160.813C161.646 82.0833 163.146 80.0625 165.083 78.6042L162.083 74.6042M174.667 86.5V80.25H170.5V86.5H164.25V90.6667H170.5V96.9167H174.667V90.6667H180.917V86.5H174.667Z" fill="white"/>
</svg>
