<svg width="500" height="559" viewBox="0 0 500 559" fill="none" xmlns="http://www.w3.org/2000/svg">
<rect width="500" height="500" fill="#9F9F9F"/>
<mask id="mask0_1_8" style="mask-type:luminance" maskUnits="userSpaceOnUse" x="65" y="130" width="371" height="371">
<path d="M250.5 274.917C259.827 274.917 269.062 273.08 277.678 269.511C286.295 265.941 294.124 260.71 300.719 254.115C307.314 247.52 312.546 239.691 316.115 231.074C319.684 222.458 321.521 213.222 321.521 203.896C321.521 194.569 319.684 185.334 316.115 176.717C312.546 168.101 307.314 160.271 300.719 153.677C294.124 147.082 286.295 141.85 277.678 138.281C269.062 134.712 259.827 132.875 250.5 132.875C231.664 132.875 213.6 140.358 200.281 153.677C186.962 166.996 179.479 185.06 179.479 203.896C179.479 222.732 186.962 240.796 200.281 254.115C213.6 267.434 231.664 274.917 250.5 274.917ZM67.875 485.95V498.125H433.125V485.95C433.125 440.497 433.125 417.77 424.278 400.4C416.496 385.129 404.08 372.712 388.808 364.93C371.438 356.083 348.712 356.083 303.258 356.083H197.742C152.288 356.083 129.562 356.083 112.192 364.93C96.9202 372.712 84.5038 385.129 76.7222 400.4C67.875 417.77 67.875 440.497 67.875 485.95Z" fill="white" stroke="white" stroke-width="4" stroke-linecap="round" stroke-linejoin="round"/>
</mask>
<g mask="url(#mask0_1_8)">
<path d="M7 72H494V559H7V72Z" fill="#EBEBEB"/>
</g>
</svg>
