<svg width="35" height="35" viewBox="0 0 35 35" fill="none" xmlns="http://www.w3.org/2000/svg">
<path d="M20.748 14H13.2348C12.5606 14 12 14.5606 12 15.2522V21.5132C12 22.2049 12.5606 22.7654 13.2346 22.7654H20.7478C21.4394 22.7654 22 22.2049 22 21.5132V15.2522C22.0002 14.5606 21.4563 14 20.748 14ZM14.1739 15.2522C14.6926 15.2522 15.1131 15.6727 15.1131 16.1914C15.1131 16.71 14.71 17.1305 14.1739 17.1305C13.6378 17.1305 13.2348 16.71 13.2348 16.1914C13.2348 15.6727 13.6727 15.2522 14.1739 15.2522ZM20.7284 21.3489C20.6736 21.4506 20.568 21.5132 20.4526 21.5132H13.6048C13.547 21.5132 13.4903 21.4972 13.4411 21.467C13.3919 21.4368 13.3519 21.3935 13.3258 21.342C13.2996 21.2905 13.2881 21.2327 13.2928 21.1751C13.2974 21.1175 13.3178 21.0623 13.3519 21.0157L14.7215 19.1374C14.7805 19.0558 14.8744 19.0088 14.9742 19.0088C15.074 19.0088 15.1682 19.0566 15.2272 19.1374L15.8623 20.0083L17.6877 17.2867C17.7466 17.1833 17.8445 17.1305 17.9482 17.1305C18.0518 17.1305 18.1507 17.1828 18.2086 17.2699L20.713 21.0265C20.7773 21.1219 20.7832 21.2452 20.7284 21.3489Z" fill="white"/>
</svg>
<svg width="35" height="35" viewBox="0 0 35 35" fill="none" xmlns="http://www.w3.org/2000/svg">
<path d="M20.748 14H13.2348C12.5606 14 12 14.5606 12 15.2522V21.5132C12 22.2049 12.5606 22.7654 13.2346 22.7654H20.7478C21.4394 22.7654 22 22.2049 22 21.5132V15.2522C22.0002 14.5606 21.4563 14 20.748 14ZM14.1739 15.2522C14.6926 15.2522 15.1131 15.6727 15.1131 16.1914C15.1131 16.71 14.71 17.1305 14.1739 17.1305C13.6378 17.1305 13.2348 16.71 13.2348 16.1914C13.2348 15.6727 13.6727 15.2522 14.1739 15.2522ZM20.7284 21.3489C20.6736 21.4506 20.568 21.5132 20.4526 21.5132H13.6048C13.547 21.5132 13.4903 21.4972 13.4411 21.467C13.3919 21.4368 13.3519 21.3935 13.3258 21.342C13.2996 21.2905 13.2881 21.2327 13.2928 21.1751C13.2974 21.1175 13.3178 21.0623 13.3519 21.0157L14.7215 19.1374C14.7805 19.0558 14.8744 19.0088 14.9742 19.0088C15.074 19.0088 15.1682 19.0566 15.2272 19.1374L15.8623 20.0083L17.6877 17.2867C17.7466 17.1833 17.8445 17.1305 17.9482 17.1305C18.0518 17.1305 18.1507 17.1828 18.2086 17.2699L20.713 21.0265C20.7773 21.1219 20.7832 21.2452 20.7284 21.3489Z" fill="white"/>
</svg>
